<svg xmlns="http://www.w3.org/2000/svg" version="1.1" xmlns:xlink="http://www.w3.org/1999/xlink" width="512" height="512" x="0" y="0" viewBox="0 0 24 24" style="enable-background:new 0 0 512 512" xml:space="preserve" class=""><g><g data-name="Layer 2"><path d="M12 5.75A6.25 6.25 0 1 0 18.25 12 6.257 6.257 0 0 0 12 5.75Zm3.326 5.428-3.45 3.835a1.083 1.083 0 0 1-1.57.042L8.75 13.5a1.082 1.082 0 0 1 0-1.53 1.082 1.082 0 0 1 1.53 0l.749.747 2.687-2.987a1.082 1.082 0 1 1 1.61 1.448Z" fill="#f5c400" opacity="1" data-original="#000000" class=""></path><path d="M23.21 10.225a3.503 3.503 0 0 0-1.344-1.94 3.812 3.812 0 0 1-.82-.894 3.679 3.679 0 0 1-.223-1.132 3.547 3.547 0 0 0-.798-2.284 3.551 3.551 0 0 0-2.283-.798 3.687 3.687 0 0 1-1.133-.223 3.85 3.85 0 0 1-.894-.82 3.507 3.507 0 0 0-1.94-1.346 3.512 3.512 0 0 0-2.275.688 3.779 3.779 0 0 1-1.088.498 3.768 3.768 0 0 1-1.171-.139 3.526 3.526 0 0 0-2.395.05 3.476 3.476 0 0 0-1.41 1.86 3.895 3.895 0 0 1-.613 1.078 3.906 3.906 0 0 1-1.077.612 3.478 3.478 0 0 0-1.862 1.41 3.53 3.53 0 0 0-.049 2.396 3.754 3.754 0 0 1 .14 1.17 3.806 3.806 0 0 1-.499 1.089 3.52 3.52 0 0 0-.687 2.275 3.503 3.503 0 0 0 1.345 1.94 3.811 3.811 0 0 1 .82.894 3.679 3.679 0 0 1 .223 1.132 3.55 3.55 0 0 0 .798 2.284 3.55 3.55 0 0 0 2.283.798 3.687 3.687 0 0 1 1.133.223 3.85 3.85 0 0 1 .894.82 3.507 3.507 0 0 0 1.94 1.346 2.088 2.088 0 0 0 .318.024 4.029 4.029 0 0 0 1.956-.712 3.779 3.779 0 0 1 1.09-.498 3.713 3.713 0 0 1 1.17.14 3.526 3.526 0 0 0 2.395-.05 3.476 3.476 0 0 0 1.41-1.861 3.895 3.895 0 0 1 .613-1.078 3.906 3.906 0 0 1 1.077-.612 3.478 3.478 0 0 0 1.862-1.41 3.53 3.53 0 0 0 .049-2.396 3.754 3.754 0 0 1-.14-1.17 3.806 3.806 0 0 1 .499-1.089 3.52 3.52 0 0 0 .687-2.275ZM12 19.75A7.75 7.75 0 1 1 19.75 12 7.759 7.759 0 0 1 12 19.75Z" fill="#f5c400" opacity="1" data-original="#000000" class=""></path></g></g></svg>